<svg width="36" height="36" viewBox="0 0 36 36" fill="none" xmlns="http://www.w3.org/2000/svg">
<rect width="36" height="36" rx="18" fill="#7199CB"/>
<path d="M26.815 9.13841C26.2196 8.59101 23.8091 6.83837 18.4359 6.81436C18.4359 6.81436 12.1024 6.43022 9.01489 9.26325C7.29587 10.9823 6.69084 13.4936 6.62842 16.6147C6.566 19.7311 6.48437 25.5748 12.1168 27.1594H12.1216L12.1168 29.5747C12.1168 29.5747 12.0832 30.5542 12.7267 30.7511C13.5045 30.9912 13.9655 30.2469 14.7098 29.445C15.1179 29.0033 15.6797 28.3598 16.1071 27.8653C19.9581 28.187 22.9208 27.4475 23.2569 27.3371C24.0348 27.0826 28.438 26.5208 29.1535 20.677C29.8929 14.6652 28.7933 10.8574 26.815 9.13841ZM27.468 20.2545C26.863 25.1331 23.2953 25.4404 22.6375 25.6516C22.359 25.7429 19.7564 26.3911 16.4816 26.175C16.4816 26.175 14.0423 29.1185 13.2837 29.882C13.1636 30.002 13.0244 30.0501 12.9331 30.026C12.8035 29.9924 12.7651 29.8388 12.7699 29.6131C12.7699 29.2866 12.7891 25.594 12.7891 25.594C12.7843 25.594 12.7843 25.594 12.7891 25.594C8.02093 24.2735 8.29943 19.2989 8.35225 16.6964C8.40507 14.0938 8.89485 11.957 10.3498 10.5213C12.9571 8.15885 18.3399 8.50938 18.3399 8.50938C22.8824 8.52858 25.0576 9.89709 25.5617 10.3533C27.2376 11.7938 28.0923 15.227 27.468 20.2545Z" fill="white"/>
<path d="M20.6493 16.7876C20.4909 16.7876 20.3564 16.6628 20.3468 16.4995C20.294 15.4671 19.809 14.9629 18.8199 14.9101C18.6518 14.9005 18.5221 14.7565 18.5318 14.5884C18.5414 14.4203 18.6854 14.2907 18.8535 14.3003C20.1595 14.3723 20.8894 15.1214 20.9566 16.4659C20.9662 16.634 20.8366 16.778 20.6685 16.7828C20.6589 16.7876 20.6541 16.7876 20.6493 16.7876Z" fill="white"/>
<path d="M22.2053 17.3063H22.2005C22.0324 17.3015 21.898 17.1623 21.9028 16.9942C21.9268 15.957 21.6291 15.1167 20.9952 14.4253C20.3662 13.7338 19.4971 13.3593 18.3495 13.2776C18.1814 13.2632 18.0566 13.1192 18.071 12.9511C18.0854 12.7831 18.2294 12.6582 18.3975 12.6726C19.6939 12.7686 20.7167 13.22 21.4466 14.0171C22.1813 14.819 22.5366 15.8226 22.5126 17.0086C22.5078 17.1767 22.3685 17.3063 22.2053 17.3063Z" fill="white"/>
<path d="M23.7995 17.9304C23.6314 17.9304 23.497 17.7959 23.497 17.6279C23.4826 15.7696 22.9496 14.3531 21.8644 13.2919C20.7936 12.2451 19.4347 11.7121 17.8357 11.6977C17.6677 11.6977 17.5332 11.5585 17.5332 11.3904C17.5332 11.2223 17.6725 11.0879 17.8357 11.0879C19.598 11.1023 21.0961 11.6929 22.2821 12.8549C23.473 14.017 24.0828 15.6207 24.102 17.6183C24.1068 17.7911 23.9724 17.9304 23.7995 17.9304C23.8043 17.9304 23.8043 17.9304 23.7995 17.9304Z" fill="white"/>
<path d="M18.892 20.5473C18.892 20.5473 19.3194 20.5857 19.5499 20.3024L19.9964 19.7406C20.2125 19.4621 20.7359 19.2845 21.2449 19.5678C21.5282 19.7262 22.042 20.0432 22.3589 20.2784C22.6998 20.5281 23.3913 21.1043 23.3961 21.1091C23.7274 21.3876 23.8042 21.7958 23.5785 22.2328C23.5785 22.2328 23.5785 22.2376 23.5785 22.2424C23.348 22.6505 23.0359 23.0346 22.647 23.39C22.6422 23.39 22.6422 23.3948 22.6374 23.3948C22.3157 23.6637 21.9987 23.8173 21.6914 23.8509C21.653 23.8605 21.6098 23.8605 21.5522 23.8605C21.4177 23.8605 21.2833 23.8413 21.1488 23.7981L21.1392 23.7837C20.6591 23.6493 19.862 23.3131 18.5367 22.5785C17.6724 22.1031 16.9569 21.6181 16.3471 21.1331C16.0254 20.8787 15.6988 20.5954 15.3627 20.2592C15.3531 20.2496 15.3387 20.2352 15.3291 20.2256C15.3195 20.216 15.3051 20.2016 15.2955 20.192C15.2859 20.1824 15.2715 20.168 15.2619 20.1584C15.2523 20.1488 15.2379 20.1344 15.2283 20.1248C14.8969 19.7887 14.6088 19.4621 14.3544 19.1404C13.8694 18.5354 13.3844 17.8151 12.909 16.9508C12.1744 15.6207 11.8382 14.8236 11.7038 14.3483L11.6894 14.3387C11.6462 14.2042 11.627 14.0698 11.627 13.9353C11.627 13.8777 11.627 13.8345 11.6366 13.7961C11.675 13.484 11.8286 13.1718 12.0927 12.8501C12.0927 12.8453 12.0975 12.8453 12.0975 12.8405C12.4529 12.4468 12.837 12.1395 13.2451 11.909C13.2451 11.909 13.2499 11.909 13.2547 11.909C13.6869 11.6833 14.0951 11.7601 14.3784 12.0914C14.3784 12.0914 14.9594 12.7877 15.2091 13.1286C15.4444 13.4503 15.7613 13.9593 15.9197 14.2426C16.203 14.7516 16.0254 15.275 15.7469 15.4911L15.1851 15.9376C14.9018 16.1681 14.9402 16.5955 14.9402 16.5955C14.9402 16.5955 15.7709 19.755 18.892 20.5473Z" fill="white"/>
</svg>
