<svg width="36" height="36" viewBox="0 0 36 36" fill="none" xmlns="http://www.w3.org/2000/svg">
<rect width="36" height="36" rx="18" fill="#419FD9"/>
<rect width="36" height="36" rx="18" fill="#7199CB"/>
<path d="M8.09052 17.6032C13.325 15.2747 16.8155 13.7396 18.5619 12.9979C23.5485 10.8803 24.5846 10.5124 25.26 10.5001C25.4085 10.4976 25.7406 10.5352 25.9558 10.7134C26.1374 10.8639 26.1874 11.0672 26.2113 11.2099C26.2352 11.3526 26.265 11.6776 26.2413 11.9316C25.9711 14.8305 24.8019 21.8654 24.207 25.1122C23.9553 26.4861 23.4597 26.9467 22.9799 26.9918C21.9372 27.0898 21.1454 26.2882 20.1355 25.6123C18.5551 24.5546 17.6623 23.8962 16.1283 22.864C14.3555 21.6712 15.5047 21.0156 16.5151 19.9442C16.7795 19.6638 21.3737 15.3972 21.4627 15.0101C21.4738 14.9617 21.4841 14.7812 21.3791 14.686C21.2741 14.5907 21.1192 14.6233 21.0074 14.6492C20.8488 14.6859 18.3242 16.3897 13.4335 19.7604C12.7169 20.2629 12.0678 20.5077 11.4863 20.4948C10.8451 20.4807 9.61189 20.1247 8.6951 19.8204C7.57062 19.4472 6.6769 19.2499 6.75472 18.6161C6.79526 18.286 7.24053 17.9483 8.09052 17.6032Z" fill="white"/>
</svg>
