<svg width="36" height="36" viewBox="0 0 36 36" fill="none" xmlns="http://www.w3.org/2000/svg">
<rect width="36" height="36" rx="18" fill="#7199CB"/>
<path fill-rule="evenodd" clip-rule="evenodd" d="M29.4493 12.401C29.6163 11.8447 29.4493 11.4359 28.6553 11.4359H26.0297C25.362 11.4359 25.0544 11.789 24.8875 12.1785C24.8875 12.1785 23.5522 15.433 21.6607 17.547C21.0487 18.1589 20.7706 18.3534 20.4367 18.3534C20.2698 18.3534 20.0283 18.1589 20.0283 17.6027V12.401C20.0283 11.7333 19.8345 11.4359 19.2781 11.4359H15.1521C14.735 11.4359 14.4841 11.7457 14.4841 12.0394C14.4841 12.6723 15.4297 12.8182 15.5272 14.5984V18.465C15.5272 19.3127 15.3742 19.4665 15.0404 19.4665C14.1503 19.4665 11.9853 16.1972 10.701 12.4567C10.4493 11.7295 10.1969 11.4359 9.52582 11.4359H6.90021C6.15003 11.4359 6 11.789 6 12.1785C6 12.8739 6.89027 16.3232 10.1447 20.8851C12.3146 24.0002 15.3712 25.6892 18.1528 25.6892C19.822 25.6892 20.0283 25.3141 20.0283 24.668V22.3134C20.0283 21.5632 20.1864 21.4136 20.7147 21.4136C21.1044 21.4136 21.7719 21.6082 23.3298 23.1103C25.11 24.8902 25.4033 25.6892 26.4048 25.6892H29.0304C29.7806 25.6892 30.1556 25.3141 29.9392 24.5739C29.7025 23.8361 28.8526 22.7659 27.7247 21.497C27.1127 20.7737 26.1947 19.9948 25.9168 19.6054C25.5272 19.1047 25.6385 18.8823 25.9168 18.4374C25.9168 18.4374 29.1155 13.9311 29.4493 12.4011V12.401Z" fill="white"/>
</svg>
