<svg width="14" height="26" viewBox="0 0 14 26" fill="none" xmlns="http://www.w3.org/2000/svg">
<path d="M13.7071 1.70711C14.0976 1.31658 14.0976 0.683417 13.7071 0.292893C13.3166 -0.0976311 12.6834 -0.0976311 12.2929 0.292893L13.7071 1.70711ZM1 13L0.292893 12.2929C-0.0976311 12.6834 -0.0976311 13.3166 0.292893 13.7071L1 13ZM12.2929 25.7071C12.6834 26.0976 13.3166 26.0976 13.7071 25.7071C14.0976 25.3166 14.0976 24.6834 13.7071 24.2929L12.2929 25.7071ZM12.2929 0.292893L0.292893 12.2929L1.70711 13.7071L13.7071 1.70711L12.2929 0.292893ZM0.292893 13.7071L12.2929 25.7071L13.7071 24.2929L1.70711 12.2929L0.292893 13.7071Z" fill="white"/>
</svg>
