<svg width="14" height="26" viewBox="0 0 14 26" fill="none" xmlns="http://www.w3.org/2000/svg">
<path d="M0.292893 1.70711C-0.0976311 1.31658 -0.0976311 0.683418 0.292893 0.292893C0.683418 -0.0976311 1.31658 -0.0976311 1.70711 0.292893L0.292893 1.70711ZM13 13L13.7071 12.2929C14.0976 12.6834 14.0976 13.3166 13.7071 13.7071L13 13ZM1.70711 25.7071C1.31658 26.0976 0.683418 26.0976 0.292893 25.7071C-0.0976311 25.3166 -0.0976311 24.6834 0.292893 24.2929L1.70711 25.7071ZM1.70711 0.292893L13.7071 12.2929L12.2929 13.7071L0.292893 1.70711L1.70711 0.292893ZM13.7071 13.7071L1.70711 25.7071L0.292893 24.2929L12.2929 12.2929L13.7071 13.7071Z" fill="white"/>
</svg>
